# xmcd
#
# Track frame offsets: 
#        150
#        14087
#        26657
#        41158
#        55087
#        66242
#        79202
#        94113
#        109635
#        124161
#        138300
#        152673
#        166847
#        180394
#        192455
#        207039
#        219795
#        233165
#        245569
#        260179
#        272966
#
# Disc length: 3818 seconds
#
# Revision: 6
# Processed by: cddbd v1.5.2PL0 Copyright (c) Steve Scherf et al.
# Submitted via: ExactAudioCopy v0.99pb4
#
DISCID=2e0ee815
DTITLE=Fats Waller - How Ya, Baby  [CD 3-10]
DYEAR=2005
DGENRE=Jazz, Swing
TTITLE0=How Can I?
TTITLE1=The Joint Is Jumpin'
TTITLE2=A Hopeless Love Affair
TTITLE3=What Will I Do In The Morning?
TTITLE4=How Ya, Baby ¿ (1937-38)
TTITLE5=Jealous Of Me
TTITLE6=Every Day's A Holiday
TTITLE7=Neglected
TTITLE8=My Window Faces To South
TTITLE9=Am I In Another World?
TTITLE10=Why Do Hawaiians Sing Aloa?
TTITLE11=My First Impression Of You
TTITLE12=Something Tells Me
TTITLE13=I Love To Whistle
TTITLE14=You Went To My Head
TTITLE15=Florida Flo
TTITLE16=Lost And Found
TTITLE17=Don't Try To Cry Your Way Back To Me
TTITLE18=In The Gloaming
TTITLE19=You Had An Evening To Spare
TTITLE20=Let's Break The Good News
EXTD=
EXTT0=
EXTT1=
EXTT2=
EXTT3=
EXTT4=
EXTT5=
EXTT6=
EXTT7=
EXTT8=
EXTT9=
EXTT10=
EXTT11=
EXTT12=
EXTT13=
EXTT14=
EXTT15=
EXTT16=
EXTT17=
EXTT18=
EXTT19=
EXTT20=
PLAYORDER=
